<svg width="260" height="322" viewBox="0 0 260 322" fill="none" xmlns="http://www.w3.org/2000/svg">
<mask id="mask0_818_10" style="mask-type:alpha" maskUnits="userSpaceOnUse" x="0" y="3" width="260" height="319">
<path d="M16.8716 159.627C-33.1639 237.682 35.1838 307.148 128.832 321.482C173.745 321.482 341.239 241.672 211.892 110.455C209.825 108.357 206.293 108.566 204.52 110.918C200.545 116.194 193.696 124.501 185.935 129.948C185.096 130.537 184.219 131.182 183.361 131.696C183.235 131.612 183.539 130.502 184.005 128.692C187.853 113.725 204.675 44.7491 114.773 4.00563C111.212 2.39136 107.388 5.63106 108.077 9.48054C118.294 66.5758 86.5559 93.1282 56.1246 118.587C40.912 131.314 26.0261 143.767 16.8716 159.627Z" fill="#C4C4C4"/>
</mask>
<g mask="url(#mask0_818_10)">
<path fill-rule="evenodd" clip-rule="evenodd" d="M56.1245 118.587C40.9118 131.314 26.0259 143.767 16.8714 159.627C-33.1641 237.682 36.2526 302.217 105.101 314.225C91.7678 298.368 31.7158 227.136 116.644 166.101L116.647 166.1C120.368 163.425 124.361 160.762 128.64 158.115C126.764 162.946 125.784 167.673 125.515 172.262C124.021 197.796 149.766 210.552 159.773 233.368C173.783 256.585 157.442 306.637 149.762 314.225C169.587 320.693 341.239 241.672 211.892 110.455C209.825 108.357 206.293 108.566 204.52 110.918C200.545 116.194 193.696 124.501 185.935 129.948C184.415 131.015 183.542 130.49 184.004 128.692C187.853 113.725 204.675 44.7491 114.773 4.00563C111.211 2.39136 107.388 5.63106 108.077 9.48054C118.294 66.5758 86.5557 93.1283 56.1245 118.587Z" fill="#096DC0"/>
<path fill-rule="evenodd" clip-rule="evenodd" d="M128.64 158.115C126.764 162.946 125.784 167.673 125.515 172.262C125.517 172.229 125.512 172.218 125.507 172.207C125.502 172.195 125.497 172.184 125.499 172.151C125.789 167.553 120.387 163.42 116.644 166.101L116.647 166.1C120.368 163.425 124.361 160.762 128.64 158.115Z" fill="#096DC0"/>
<path fill-rule="evenodd" clip-rule="evenodd" d="M77.7589 189.167C67.7173 197.597 57.8914 205.846 51.8487 216.351C20.8504 279.436 60.2852 307.071 105.731 315.026C96.9296 304.522 61.6487 261.069 117.708 220.639C120.165 218.867 122.8 217.103 125.625 215.35C124.387 218.55 123.74 221.681 123.562 224.721C122.576 241.635 139.569 250.085 146.175 265.198C153.678 284.214 155.473 308.252 149.646 314.219C163.407 317.659 264.526 288.036 176.612 183.876C175.656 184.832 168.567 193.084 163.444 196.692C162.441 197.399 161.865 197.051 162.17 195.86C164.71 185.946 175.814 140.256 116.472 113.267C114.121 112.198 111.597 114.344 112.052 116.894C118.796 154.714 97.8459 172.303 77.7589 189.167Z" fill="#7289DA"/>
<path fill-rule="evenodd" clip-rule="evenodd" d="M125.625 215.35C124.387 218.55 123.74 221.681 123.562 224.721C123.564 224.699 123.56 224.692 123.557 224.684C123.554 224.677 123.55 224.67 123.552 224.647C123.743 221.602 120.179 218.863 117.708 220.639C120.165 218.867 122.8 217.103 125.625 215.35Z" fill="#7289DA"/>
</g>
</svg>
